<svg width="67" height="63" viewBox="0 0 67 63" fill="none" xmlns="http://www.w3.org/2000/svg">
<path d="M32.4138 58.7034C31.3398 60.5263 28.7669 60.6946 27.4646 59.027L3.06519 27.7846C1.80389 26.1696 2.49709 23.7934 4.42894 23.1099L30.1769 14L59.01 3.03776C61.6603 2.03014 64.1002 4.92189 62.6609 7.36478L32.4138 58.7034Z" fill="#0EA5E9"/>
<path d="M41.6489 22.6C41.8409 22.6 42.0009 22.6747 42.1289 22.824C42.2782 22.952 42.3529 23.112 42.3529 23.304L42.3209 23.528L34.9609 43.944C34.8542 44.2427 34.6836 44.4987 34.4489 44.712C34.2142 44.904 33.9049 45 33.5209 45H26.0649C25.6809 45 25.3716 44.904 25.1369 44.712C24.9022 44.4987 24.7422 44.2747 24.6569 44.04L17.2329 23.528L17.2009 23.304C17.2009 23.112 17.2649 22.952 17.3929 22.824C17.5422 22.6747 17.7129 22.6 17.9049 22.6H24.6569C25.0409 22.6 25.3502 22.7173 25.5849 22.952C25.8409 23.1653 26.0116 23.4 26.0969 23.656L29.7769 35.912L33.4569 23.656C33.5422 23.3787 33.7022 23.1333 33.9369 22.92C34.1716 22.7067 34.4916 22.6 34.8969 22.6H41.6489Z" fill="white"/>
<path d="M39 22.6016H42L56.5 22.6016L52.5 29.5H39V22.6016Z" fill="white"/>
</svg>
