<svg width="24" height="26" viewBox="0 0 24 26" fill="none" xmlns="http://www.w3.org/2000/svg">
<path d="M11.1429 26L0 5.79207L11.1429 13.901L16.5306 4.1188L21.551 7.20791L11.1429 26Z" fill="url(#paint0_linear_7_2)"/>
<rect width="2.46829" height="0.757082" transform="matrix(0.486103 -0.873901 0.851953 0.523619 15.9184 6.63704)" fill="white"/>
<rect width="1.35413" height="0.757082" transform="matrix(0.486103 -0.873901 0.851953 0.523619 17.6327 6.37962)" fill="white"/>
<rect width="5.02054" height="0.661969" transform="matrix(0.486103 -0.873901 0.851953 0.523619 18.3673 5.04477)" fill="#47CAFF"/>
<rect width="1.56129" height="0.769979" transform="matrix(0.486103 -0.873901 0.851953 0.523619 16.6146 5.37848)" fill="#47CAFF"/>
<rect width="2.03237" height="0.482243" transform="matrix(0.486103 -0.873901 0.851953 0.523619 18.2014 4.1317)" fill="#47CAFF"/>
<rect width="1.41023" height="0.353655" transform="matrix(0.486103 -0.873901 0.851953 0.523619 19.0896 5.37241)" fill="#47CAFF"/>
<rect width="1.82248" height="0.337544" transform="matrix(0.486103 -0.873901 0.851953 0.523619 19.9143 3.92461)" fill="#47CAFF"/>
<rect width="1.26404" height="0.337544" transform="matrix(0.486103 -0.873901 0.851953 0.523619 21.5159 6.54684)" fill="#47CAFF"/>
<rect width="1.53793" height="0.337544" transform="matrix(0.486103 -0.873901 0.851953 0.523619 22.4225 4.97427)" fill="#47CAFF"/>
<rect width="1.53793" height="0.330217" transform="matrix(0.486103 -0.873901 0.851953 0.523619 21.2047 2.56882)" fill="#47CAFF"/>
<rect width="0.325473" height="2.24312" transform="matrix(0.486103 -0.873901 0.851953 0.523619 21.1062 2.74355)" fill="#47CAFF"/>
<path d="M19.102 2.05941L20.09 0.257414L20.5008 0.509926L19.5129 2.28602L19.102 2.05941Z" fill="#47CAFF"/>
<rect width="2.20173" height="0.482243" transform="matrix(0.486103 -0.873901 0.851953 0.523619 17.8776 3.32065)" fill="#47CAFF"/>
<rect width="2.70566" height="0.630342" transform="matrix(0.486103 -0.873901 0.851953 0.523619 16.9415 3.42036)" fill="#47CAFF"/>
<rect width="9.00684" height="1.21134" transform="matrix(0.486103 -0.873901 0.851953 0.523619 6.25714 20.1926)" fill="white"/>
<rect width="3.53736" height="0.757082" transform="matrix(0.486103 -0.873901 0.851953 0.523619 17.6327 8.95387)" fill="white"/>
<rect width="4.1066" height="0.772286" transform="matrix(0.486103 -0.873901 0.851953 0.523619 18.6056 7.20135)" fill="#47CAFF"/>
<rect width="2.2092" height="0.757082" transform="matrix(0.486103 -0.873901 0.851953 0.523619 19.3469 8.43903)" fill="white"/>
<rect width="3.15837" height="0.757082" transform="matrix(0.486103 -0.873901 0.851953 0.523619 20.5714 6.30687)" fill="#47CAFF"/>
<rect width="0.467712" height="0.392988" transform="matrix(0.486103 -0.873901 0.851953 0.523619 21.4779 3.71207)" fill="#47CAFF"/>
<rect width="1.6245" height="0.345193" transform="matrix(0.486103 -0.873901 0.851953 0.523619 20.6393 5.34)" fill="#47CAFF"/>
<mask id="path-23-inside-1_7_2" fill="white">
<ellipse cx="18.9796" cy="0.643554" rx="0.367347" ry="0.386139"/>
</mask>
<path d="M18.8469 0.643554C18.8469 0.60447 18.8831 0.529693 18.9796 0.529693V1.52969C19.4818 1.52969 19.8469 1.10916 19.8469 0.643554H18.8469ZM18.9796 0.529693C19.0761 0.529693 19.1122 0.60447 19.1122 0.643554H18.1122C18.1122 1.10916 18.4774 1.52969 18.9796 1.52969V0.529693ZM19.1122 0.643554C19.1122 0.682639 19.0761 0.757416 18.9796 0.757416V-0.242584C18.4774 -0.242584 18.1122 0.177953 18.1122 0.643554H19.1122ZM18.9796 0.757416C18.8831 0.757416 18.8469 0.682639 18.8469 0.643554H19.8469C19.8469 0.177953 19.4818 -0.242584 18.9796 -0.242584V0.757416Z" fill="#47CAFF" mask="url(#path-23-inside-1_7_2)"/>
<mask id="path-25-inside-2_7_2" fill="white">
<ellipse cx="17.6327" cy="9.78218" rx="0.244898" ry="0.257426"/>
</mask>
<path d="M17.3776 9.78218C17.3776 9.672 17.4686 9.5396 17.6327 9.5396V10.5396C18.0673 10.5396 18.3776 10.1767 18.3776 9.78218H17.3776ZM17.6327 9.5396C17.7968 9.5396 17.8878 9.672 17.8878 9.78218H16.8878C16.8878 10.1767 17.198 10.5396 17.6327 10.5396V9.5396ZM17.8878 9.78218C17.8878 9.89235 17.7968 10.0247 17.6327 10.0247V9.02475C17.198 9.02475 16.8878 9.38766 16.8878 9.78218H17.8878ZM17.6327 10.0247C17.4686 10.0247 17.3776 9.89235 17.3776 9.78218H18.3776C18.3776 9.38766 18.0673 9.02475 17.6327 9.02475V10.0247Z" fill="white" mask="url(#path-25-inside-2_7_2)"/>
<mask id="path-27-inside-3_7_2" fill="white">
<ellipse cx="17.8776" cy="3.8614" rx="0.244898" ry="0.257426"/>
</mask>
<path d="M17.6225 3.8614C17.6225 3.75123 17.7135 3.61882 17.8776 3.61882V4.61882C18.3122 4.61882 18.6225 4.25591 18.6225 3.8614H17.6225ZM17.8776 3.61882C18.0417 3.61882 18.1327 3.75123 18.1327 3.8614H17.1327C17.1327 4.25591 17.4429 4.61882 17.8776 4.61882V3.61882ZM18.1327 3.8614C18.1327 3.97157 18.0417 4.10397 17.8776 4.10397V3.10397C17.4429 3.10397 17.1327 3.46688 17.1327 3.8614H18.1327ZM17.8776 4.10397C17.7135 4.10397 17.6225 3.97157 17.6225 3.8614H18.6225C18.6225 3.46688 18.3122 3.10397 17.8776 3.10397V4.10397Z" fill="#47CAFF" mask="url(#path-27-inside-3_7_2)"/>
<mask id="path-29-inside-4_7_2" fill="white">
<ellipse cx="17.6327" cy="7.20793" rx="0.244898" ry="0.257426"/>
</mask>
<path d="M17.3776 7.20793C17.3776 7.09776 17.4686 6.96535 17.6327 6.96535V7.96535C18.0673 7.96535 18.3776 7.60244 18.3776 7.20793H17.3776ZM17.6327 6.96535C17.7968 6.96535 17.8878 7.09776 17.8878 7.20793H16.8878C16.8878 7.60244 17.198 7.96535 17.6327 7.96535V6.96535ZM17.8878 7.20793C17.8878 7.3181 17.7968 7.4505 17.6327 7.4505V6.4505C17.198 6.4505 16.8878 6.81341 16.8878 7.20793H17.8878ZM17.6327 7.4505C17.4686 7.4505 17.3776 7.3181 17.3776 7.20793H18.3776C18.3776 6.81341 18.0673 6.4505 17.6327 6.4505V7.4505Z" fill="white" mask="url(#path-29-inside-4_7_2)"/>
<mask id="path-31-inside-5_7_2" fill="white">
<ellipse cx="21.4653" cy="6.8604" rx="0.159184" ry="0.167327"/>
</mask>
<path d="M21.4245 6.8604C21.4245 6.85462 21.4269 6.84728 21.433 6.84086C21.4392 6.83427 21.4507 6.82772 21.4653 6.82772V7.22772C21.673 7.22772 21.8245 7.05375 21.8245 6.8604H21.4245ZM21.4653 6.82772C21.4799 6.82772 21.4914 6.83427 21.4976 6.84086C21.5038 6.84728 21.5061 6.85462 21.5061 6.8604H21.1061C21.1061 7.05375 21.2576 7.22772 21.4653 7.22772V6.82772ZM21.5061 6.8604C21.5061 6.86617 21.5038 6.87351 21.4976 6.87993C21.4914 6.88652 21.4799 6.89307 21.4653 6.89307V6.49307C21.2576 6.49307 21.1061 6.66705 21.1061 6.8604H21.5061ZM21.4653 6.89307C21.4507 6.89307 21.4392 6.88652 21.433 6.87993C21.4269 6.87351 21.4245 6.86617 21.4245 6.8604H21.8245C21.8245 6.66705 21.673 6.49307 21.4653 6.49307V6.89307Z" fill="#47CAFF" mask="url(#path-31-inside-5_7_2)"/>
<mask id="path-33-inside-6_7_2" fill="white">
<ellipse cx="22.4449" cy="5.31584" rx="0.159184" ry="0.167327"/>
</mask>
<path d="M22.4041 5.31584C22.4041 5.31006 22.4064 5.30272 22.4125 5.29631C22.4188 5.28972 22.4303 5.28317 22.4449 5.28317V5.68317C22.6525 5.68317 22.8041 5.50919 22.8041 5.31584H22.4041ZM22.4449 5.28317C22.4595 5.28317 22.471 5.28972 22.4772 5.29631C22.4833 5.30272 22.4857 5.31006 22.4857 5.31584H22.0857C22.0857 5.50919 22.2372 5.68317 22.4449 5.68317V5.28317ZM22.4857 5.31584C22.4857 5.32162 22.4833 5.32896 22.4772 5.33537C22.471 5.34196 22.4595 5.34851 22.4449 5.34851V4.94851C22.2372 4.94851 22.0857 5.12249 22.0857 5.31584H22.4857ZM22.4449 5.34851C22.4303 5.34851 22.4188 5.34196 22.4125 5.33537C22.4064 5.32896 22.4041 5.32162 22.4041 5.31584H22.8041C22.8041 5.12249 22.6525 4.94851 22.4449 4.94851V5.34851Z" fill="#47CAFF" mask="url(#path-33-inside-6_7_2)"/>
<mask id="path-35-inside-7_7_2" fill="white">
<ellipse cx="21.4286" cy="0.386139" rx="0.367347" ry="0.386139"/>
</mask>
<path d="M21.2959 0.386139C21.2959 0.347054 21.3321 0.272277 21.4286 0.272277V1.27228C21.9308 1.27228 22.2959 0.85174 22.2959 0.386139H21.2959ZM21.4286 0.272277C21.525 0.272277 21.5612 0.347054 21.5612 0.386139H20.5612C20.5612 0.85174 20.9263 1.27228 21.4286 1.27228V0.272277ZM21.5612 0.386139C21.5612 0.425223 21.525 0.5 21.4286 0.5V-0.5C20.9263 -0.5 20.5612 -0.0794631 20.5612 0.386139H21.5612ZM21.4286 0.5C21.3321 0.5 21.2959 0.425223 21.2959 0.386139H22.2959C22.2959 -0.0794631 21.9308 -0.5 21.4286 -0.5V0.5Z" fill="#47CAFF" mask="url(#path-35-inside-7_7_2)"/>
<mask id="path-37-inside-8_7_2" fill="white">
<ellipse cx="21.3061" cy="3.34654" rx="0.244898" ry="0.257426"/>
</mask>
<path d="M21.051 3.34654C21.051 3.23637 21.142 3.10396 21.3061 3.10396V4.10396C21.7407 4.10396 22.051 3.74105 22.051 3.34654H21.051ZM21.3061 3.10396C21.4702 3.10396 21.5612 3.23637 21.5612 3.34654H20.5612C20.5612 3.74105 20.8715 4.10396 21.3061 4.10396V3.10396ZM21.5612 3.34654C21.5612 3.45671 21.4702 3.58911 21.3061 3.58911V2.58911C20.8715 2.58911 20.5612 2.95202 20.5612 3.34654H21.5612ZM21.3061 3.58911C21.142 3.58911 21.051 3.45671 21.051 3.34654H22.051C22.051 2.95202 21.7407 2.58911 21.3061 2.58911V3.58911Z" fill="#47CAFF" mask="url(#path-37-inside-8_7_2)"/>
<defs>
<linearGradient id="paint0_linear_7_2" x1="9.97959" y1="5.79207" x2="9.97959" y2="26" gradientUnits="userSpaceOnUse">
<stop stop-color="#47CAFF"/>
<stop offset="1" stop-color="#BD34FE"/>
</linearGradient>
</defs>
</svg>
